# File created by Blade
# Date/Time:  Thu Jan 22 19:18:16 2015
# Frame Rate: 120.000 fps
#------------------------------------------------------
:FULLY-SPECIFIED
:DEGREES
1145
root -0.504017 31.756924 -6.994025 86.172316 25.031084 -8.702894
RightUpLeg -82.640608 -4.039275 5.482035
RightLeg -6.592311 -0.000000 0.000000
RightFoot -5.616642 -14.035366 18.589114
RightToeBase 7.281157 -0.000000 -0.000000
LeftUpLeg -98.735131 28.689320 24.467732
LeftLeg 5.595491 -0.000000 -0.000000
LeftFoot 3.506215 2.485729 -27.873518
LeftToeBase 8.197519 -0.000000 -0.000000
Spine 40.450092 10.372847 -20.837231
RightShoulder -1.681881 25.742970 -49.243763
RightArm 91.641836 20.843739 39.870067
RightForeArm -24.239774 0.000000 25.195361
RightHand 12.797902 -0.000000 3.567040
RightHandThumb1 -24.326973 -0.000000 -32.862282
LeftShoulder -1.460845 -23.541520 25.914892
LeftArm 41.450334 -25.528525 -52.993951
LeftForeArm -27.274955 -0.000000 62.076699
LeftHand -9.047245 -0.000000 -15.445528
LeftHandThumb1 -26.253704 0.000000 33.147579
Head -42.137584 -0.900604 -28.929067
1146
root -0.499451 31.758233 -7.003952 86.189180 24.990479 -8.664023
RightUpLeg -82.651998 -4.079913 5.380565
RightLeg -6.609212 -0.000000 0.000000
RightFoot -5.617659 -14.095851 18.637168
RightToeBase 7.302436 -0.000000 -0.000000
LeftUpLeg -98.751086 28.649084 24.440071
LeftLeg 5.593157 -0.000000 -0.000000
LeftFoot 3.525998 2.506273 -27.817679
LeftToeBase 8.229880 -0.000000 -0.000000
Spine 40.467018 10.321391 -20.825688
RightShoulder -1.640264 25.702965 -49.221140
RightArm 91.690438 20.908909 39.806881
RightForeArm -24.219865 0.000000 25.144818
RightHand 12.801128 -0.000000 3.591233
RightHandThumb1 -24.326973 -0.000000 -32.862282
LeftShoulder -1.471921 -23.519485 25.912591
LeftArm 41.422784 -25.520909 -52.922623
LeftForeArm -27.316883 -0.000000 62.045829
LeftHand -9.030106 0.000000 -15.446498
LeftHandThumb1 -26.253704 0.000000 33.147579
Head -42.148415 -0.916877 -28.937756
1147
root -0.498490 31.758073 -7.014924 86.213614 24.951935 -8.664030
RightUpLeg -82.682433 -4.074655 5.263799
RightLeg -6.630054 -0.000000 0.000000
RightFoot -5.610989 -14.193899 18.631862
RightToeBase 7.322413 -0.000000 -0.000000
LeftUpLeg -98.778870 28.664798 24.423327
LeftLeg 5.605517 -0.000000 -0.000000
LeftFoot 3.529834 2.517781 -27.830125
LeftToeBase 8.157818 -0.000000 -0.000000
Spine 40.424991 10.331380 -20.823782
RightShoulder -1.603470 25.633303 -49.162000
RightArm 91.739458 20.963754 39.763842
RightForeArm -24.199337 -0.000000 25.114129
RightHand 12.786859 -0.000000 3.574693
RightHandThumb1 -24.326973 -0.000000 -32.862282
LeftShoulder -1.487550 -23.431775 25.909975
LeftArm 41.518469 -25.510665 -52.906199
LeftForeArm -27.334805 -0.000000 61.991273
LeftHand -9.025689 -0.000000 -15.453712
LeftHandThumb1 -26.253704 0.000000 33.147579
Head -42.141902 -0.911630 -28.896360
1148
root -0.496529 31.757300 -7.025019 86.214215 24.900892 -8.665014
RightUpLeg -82.709162 -4.077449 5.210769
RightLeg -6.621381 -0.000000 0.000000
RightFoot -5.603889 -14.204737 18.649827
RightToeBase 7.320421 -0.000000 -0.000000
LeftUpLeg -98.780006 28.665262 24.394303
LeftLeg 5.608756 -0.000000 -0.000000
LeftFoot 3.515604 2.521716 -27.803207
LeftToeBase 8.186556 -0.000000 -0.000000
Spine 40.417072 10.320007 -20.843125
RightShoulder -1.561313 25.669582 -49.122652
RightArm 91.753232 20.960250 39.725085
RightForeArm -24.188490 -0.000000 25.069649
RightHand 12.786840 -0.000000 3.621659
RightHandThumb1 -24.326973 -0.000000 -32.862282
LeftShoulder -1.502392 -23.514996 25.942796
LeftArm 41.389817 -25.450524 -52.844583
LeftForeArm -27.365138 -0.000000 61.985228
LeftHand -9.027245 -0.000000 -15.468382
LeftHandThumb1 -26.253704 0.000000 33.147579
Head -42.163880 -0.924234 -28.880584
1149
root -0.493946 31.757173 -7.035097 86.212721 24.864229 -8.657873
RightUpLeg -82.709326 -4.086119 5.103991
RightLeg -6.646324 -0.000000 0.000000
RightFoot -5.590121 -14.277305 18.677377
RightToeBase 7.299941 -0.000000 -0.000000
LeftUpLeg -98.784284 28.659084 24.391828
LeftLeg 5.629011 -0.000000 -0.000000
LeftFoot 3.517271 2.533592 -27.810352
LeftToeBase 8.167250 -0.000000 -0.000000
Spine 40.428651 10.308060 -20.827170
RightShoulder -1.541255 25.659369 -49.111965
RightArm 91.794475 20.981433 39.714841
RightForeArm -24.201885 -0.000000 25.030226
RightHand 12.761603 0.000000 3.667159
RightHandThumb1 -24.326973 -0.000000 -32.862282
LeftShoulder -1.505148 -23.516213 25.928972
LeftArm 41.369018 -25.432671 -52.791508
LeftForeArm -27.403013 0.000000 61.969130
LeftHand -9.024044 -0.000000 -15.449210
LeftHandThumb1 -26.253704 0.000000 33.147579
Head -42.178812 -0.931682 -28.897954
1150
root -0.491040 31.757412 -7.045849 86.239054 24.814266 -8.649763
RightUpLeg -82.742705 -4.092336 4.967796
RightLeg -6.659522 -0.000000 0.000000
RightFoot -5.586481 -14.363042 18.703714
RightToeBase 7.309744 -0.000000 -0.000000
LeftUpLeg -98.819335 28.656704 24.353514
LeftLeg 5.648067 -0.000000 -0.000000
LeftFoot 3.499327 2.556018 -27.801786
LeftToeBase 8.183947 -0.000000 -0.000000
Spine 40.406294 10.282864 -20.838605
RightShoulder -1.519227 25.670501 -49.093489
RightArm 91.831985 20.983488 39.687226
RightForeArm -24.188297 -0.000000 24.973903
RightHand 12.791620 -0.000000 3.657292
RightHandThumb1 -24.326973 -0.000000 -32.862282
LeftShoulder -1.516820 -23.513675 25.907876
LeftArm 41.355669 -25.413382 -52.736440
LeftForeArm -27.427835 -0.000000 61.943093
LeftHand -9.014683 -0.000000 -15.463537
LeftHandThumb1 -26.253704 0.000000 33.147579
Head -42.198053 -0.936877 -28.915198
1151
root -0.488601 31.757047 -7.055238 86.247677 24.793705 -8.648524
RightUpLeg -82.740259 -4.094143 4.844090
RightLeg -6.701117 -0.000000 0.000000
RightFoot -5.581398 -14.471425 18.724895
RightToeBase 7.334609 -0.000000 -0.000000
LeftUpLeg -98.829166 28.661156 24.368796
LeftLeg 5.663338 -0.000000 -0.000000
LeftFoot 3.492074 2.579847 -27.805932
LeftToeBase 8.133964 -0.000000 -0.000000
Spine 40.412862 10.250929 -20.810056
RightShoulder -1.529184 25.706984 -49.116527
RightArm 91.879272 20.957835 39.683784
RightForeArm -24.186771 -0.000000 24.913503
RightHand 12.770747 -0.000000 3.652335
RightHandThumb1 -24.326973 -0.000000 -32.862282
LeftShoulder -1.555346 -23.577080 25.872163
LeftArm 41.311075 -25.355604 -52.681901
LeftForeArm -27.430082 -0.000000 61.910648
LeftHand -8.975803 -0.000000 -15.512545
LeftHandThumb1 -26.253704 0.000000 33.147579
Head -42.245243 -0.925707 -28.981834
1152
root -0.485958 31.756517 -7.063864 86.254889 24.756114 -8.641470
RightUpLeg -82.747190 -4.102921 4.754329
RightLeg -6.725921 -0.000000 0.000000
RightFoot -5.564955 -14.528835 18.738118
RightToeBase 7.307710 -0.000000 -0.000000
LeftUpLeg -98.828885 28.656637 24.380129
LeftLeg 5.681535 -0.000000 -0.000000
LeftFoot 3.471638 2.615990 -27.794343
LeftToeBase 8.041730 -0.000000 -0.000000
Spine 40.423692 10.256880 -20.804105
RightShoulder -1.548241 25.685235 -49.096538
RightArm 91.938210 20.964676 39.670371
RightForeArm -24.168631 -0.000000 24.865812
RightHand 12.771396 -0.000000 3.669006
RightHandThumb1 -24.326973 -0.000000 -32.862282
LeftShoulder -1.592919 -23.515056 25.836201
LeftArm 41.454171 -25.343317 -52.686576
LeftForeArm -27.434574 -0.000000 61.852850
LeftHand -8.976624 -0.000000 -15.510885
LeftHandThumb1 -26.253704 0.000000 33.147579
Head -42.282573 -0.917901 -28.988805
1153
root -0.484074 31.755994 -7.074051 86.263388 24.722258 -8.638954
RightUpLeg -82.773042 -4.109912 4.706392
RightLeg -6.730849 -0.000000 0.000000
RightFoot -5.548147 -14.553386 18.740507
RightToeBase 7.328893 -0.000000 -0.000000
LeftUpLeg -98.850203 28.654831 24.359012
LeftLeg 5.695894 -0.000000 -0.000000
LeftFoot 3.460295 2.639619 -27.811742
LeftToeBase 8.094191 -0.000000 -0.000000
Spine 40.413777 10.242791 -20.801258
RightShoulder -1.534704 25.679657 -49.085624
RightArm 91.972835 20.975226 39.640523
RightForeArm -24.177780 -0.000000 24.819496
RightHand 12.749864 -0.000000 3.688874
RightHandThumb1 -24.326973 -0.000000 -32.862282
LeftShoulder -1.617942 -23.531388 25.817587
LeftArm 41.469124 -25.308555 -52.687071
LeftForeArm -27.448900 -0.000000 61.831406
LeftHand -8.985254 -0.000000 -15.479099
LeftHandThumb1 -26.253704 0.000000 33.147579
Head -42.287501 -0.916344 -28.996664
1154
root -0.481669 31.754682 -7.082871 86.256041 24.669859 -8.643963
RightUpLeg -82.780588 -4.107751 4.604063
RightLeg -6.740459 -0.000000 0.000000
RightFoot -5.537252 -14.609073 18.747098
RightToeBase 7.307869 -0.000000 -0.000000
LeftUpLeg -98.820636 28.664053 24.374212
LeftLeg 5.701311 -0.000000 -0.000000
LeftFoot 3.429004 2.663747 -27.846840
LeftToeBase 8.059876 -0.000000 -0.000000
Spine 40.417502 10.243682 -20.821946
RightShoulder -1.517160 25.663149 -49.070610
RightArm 92.022212 20.999389 39.616230
RightForeArm -24.159944 -0.000000 24.758601
RightHand 12.761804 -0.000000 3.647754
RightHandThumb1 -24.326973 -0.000000 -32.862282
LeftShoulder -1.634945 -23.511510 25.797322
LeftArm 41.511821 -25.311693 -52.695805
LeftForeArm -27.442497 -0.000000 61.806777
LeftHand -8.979147 -0.000000 -15.497276
LeftHandThumb1 -26.253704 0.000000 33.147579
Head -42.293763 -0.911726 -29.007135
1155
root -0.480594 31.753582 -7.091346 86.249549 24.648348 -8.641817
RightUpLeg -82.784930 -4.115814 4.578956
RightLeg -6.748783 -0.000000 0.000000
RightFoot -5.532918 -14.608444 18.784297
RightToeBase 7.329522 -0.000000 -0.000000
LeftUpLeg -98.820454 28.661498 24.379527
LeftLeg 5.712203 -0.000000 -0.000000
LeftFoot 3.428079 2.674735 -27.847404
LeftToeBase 8.055779 -0.000000 -0.000000
Spine 40.423693 10.226279 -20.805200
RightShoulder -1.486741 25.686513 -49.063736
RightArm 92.032708 20.998364 39.586932
RightForeArm -24.144407 0.000000 24.722203
RightHand 12.756851 0.000000 3.665487
RightHandThumb1 -24.326973 -0.000000 -32.862282
LeftShoulder -1.622445 -23.528183 25.763056
LeftArm 41.474898 -25.309070 -52.671327
LeftForeArm -27.457364 -0.000000 61.820387
LeftHand -8.986752 -0.000000 -15.447001
LeftHandThumb1 -26.253704 0.000000 33.147579
Head -42.285373 -0.918803 -29.029340
1156
root -0.479004 31.752605 -7.100123 86.244437 24.615565 -8.640072
RightUpLeg -82.801518 -4.123762 4.550542
RightLeg -6.742049 -0.000000 0.000000
RightFoot -5.525033 -14.607996 18.789672
RightToeBase 7.354277 -0.000000 -0.000000
LeftUpLeg -98.824285 28.657404 24.363351
LeftLeg 5.722957 -0.000000 -0.000000
LeftFoot 3.422911 2.679384 -27.851674
LeftToeBase 8.029497 -0.000000 -0.000000
Spine 40.430588 10.219122 -20.796196
RightShoulder -1.465927 25.682441 -49.055536
RightArm 92.063009 21.012653 39.563981
RightForeArm -24.153002 -0.000000 24.673977
RightHand 12.750336 -0.000000 3.688241
RightHandThumb1 -24.326973 -0.000000 -32.862282
LeftShoulder -1.611748 -23.537536 25.735375
LeftArm 41.469156 -25.316189 -52.677459
LeftForeArm -27.462008 -0.000000 61.808081
LeftHand -8.970623 0.000000 -15.470587
LeftHandThumb1 -26.253704 0.000000 33.147579
Head -42.274245 -0.943370 -29.040851
